<svg width="96" height="86" viewBox="0 0 96 86" fill="none" xmlns="http://www.w3.org/2000/svg">
<g clip-path="url(#clip0)">
<path d="M86.913 41.6779C83.4634 38.7267 78.5905 38.3881 75.2229 38.3881C73.4928 38.3881 71.8182 38.4939 70.2389 38.5974C70.1172 38.5974 69.8791 38.5363 69.6728 38.4728C69.3421 38.3834 68.9453 38.2753 68.4955 38.2541C66.8924 37.946 65.6438 37.6474 64.4745 36.8267C62.0883 34.9385 59.9958 32.5846 57.9694 30.3108L56.5144 28.6929C53.8637 25.8453 50.6151 22.0688 48.9934 18.0077C48.139 15.9784 47.7898 13.8291 47.9115 11.2307C47.9273 10.7346 47.9644 10.2572 47.9908 9.79162C48.1125 7.90337 48.2289 6.12094 47.5358 4.28677C46.557 1.56139 44.1444 0 40.9143 0C38.7397 0 36.4567 0.733666 34.7213 1.95879C30.3696 4.6489 27.5734 9.74694 27.2295 15.6116C27.0522 18.899 28.1792 21.7254 29.2691 24.4555C30.2188 26.8376 31.1183 29.0809 31.1077 31.51C31.0971 35.1924 27.5178 36.2177 22.4545 37.2618C21.9016 37.377 21.354 37.4899 20.9254 37.5886C20.3461 37.6827 19.7562 37.7697 19.1583 37.859C15.3594 38.4187 11.058 39.0607 7.94166 41.699C5.58988 43.7754 4.47086 47.2015 5.09254 50.4301C5.53961 52.7581 6.83058 54.6746 8.69561 55.8127C7.52104 59.7726 9.70352 64.3862 13.9362 66.8483C13.5315 68.6401 13.9098 70.6647 15.0314 72.5577C16.2906 74.674 18.2826 76.3295 20.5101 77.1172C20.5154 80.7456 23.301 83.906 27.6871 85.0065C28.9067 85.2275 30.2294 85.3333 31.732 85.3333C33.9542 85.3333 36.1763 85.1029 38.3244 84.8889C39.044 84.816 39.7556 84.7455 40.5836 84.6632C41.8508 84.4327 43.1735 84.2869 44.5041 84.1341C47.2475 83.8213 50.0754 83.4992 52.6388 82.5163C54.7155 81.6932 56.5514 80.5057 58.3159 79.3605C58.8926 78.989 59.4588 78.6222 60.0407 78.2577C60.6122 77.8956 61.1915 77.4182 61.7788 76.9221C62.7999 76.0685 63.8502 75.1866 64.8687 75.0126C65.776 74.8574 66.6385 74.7728 67.4744 74.6952C68.4109 74.6035 69.313 74.5165 70.2019 74.3519H70.641C71.5775 74.3519 72.6065 74.4013 73.6753 74.4624C74.8895 74.5259 76.1541 74.5964 77.4053 74.5964C80.4873 74.5964 84.3496 74.2484 86.839 71.523C90.5082 67.6525 91.0346 61.7549 91.0611 55.9632V55.7116C91.1219 51.4624 91.1616 45.0358 86.913 41.6779ZM72.9531 64.9412C72.0007 68.0052 70.1436 69.2679 66.2125 69.5901C64.993 69.5901 63.493 69.5901 62.0804 70.3614C60.5831 70.7282 59.3794 71.7394 58.3027 72.6353C57.8847 72.988 57.472 73.3384 57.0885 73.6041C56.5673 73.9404 56.0382 74.2978 55.4933 74.6599C53.8663 75.7581 52.1759 76.8915 50.668 77.5499C49.75 77.7568 48.7157 77.9591 47.6734 78.1707L45.6628 78.5751C41.4487 79.25 37.0811 79.6051 32.9701 79.9296C31.5892 79.9296 30.1606 79.9296 28.7268 79.5886C27.9173 79.4969 27.3221 79.1701 26.9464 78.6151C26.4279 77.8532 26.3803 76.7175 26.7983 75.7251C27.1369 75.0409 27.0734 74.2978 26.629 73.6911C25.9517 72.7599 24.5893 72.3555 23.5444 72.3555H23.4068L23.2719 72.379C23.1476 72.4072 23.0285 72.4166 22.9095 72.4166C22.055 72.4166 21.1767 71.7817 20.5577 70.7306C19.78 69.3949 19.6741 67.7771 20.2376 67.0599C20.8884 66.3803 20.9942 65.3927 20.5207 64.4827C20.1027 63.6831 19.3435 63.1611 18.4943 63.0624C16.4996 62.4604 15.2087 61.3481 14.6558 59.782C14.2484 58.4605 14.3568 56.9485 15.042 56.2219C15.6954 55.2577 15.8462 54.1314 15.4467 53.2331C15.1161 52.4947 14.4335 51.9562 13.4098 51.6999C11.5103 51.3919 10.9416 50.0233 10.7961 48.9111C10.4866 46.8723 12.2458 45.3203 13.9018 44.5843C16.4388 43.3216 19.5445 42.8701 22.5524 42.4327C24.1634 42.1975 25.8274 41.96 27.4041 41.5979C32.7928 40.354 36.6631 36.608 37.0361 32.2766C37.298 29.0927 36.1657 26.1651 35.0758 23.3456C34.1473 20.9518 33.2743 18.6944 33.2002 16.3147C33.1235 14.0173 33.8722 11.4823 35.3086 9.0603C36.6843 7.15089 38.999 5.09569 40.8376 5.09569C40.9302 5.09569 41.0254 5.10274 41.1021 5.1145C42.237 5.26029 42.2026 7.17676 42.0783 8.96154L42.0492 9.40362C41.8825 12.3359 41.8111 14.805 42.5597 17.6644C43.6153 21.5444 46.0993 24.693 48.4935 27.7382C49.0146 28.4013 49.541 29.0668 50.0701 29.7605C52.324 32.6458 55.1917 35.785 58.3106 38.7949C58.8979 39.4275 59.5461 40.1259 60.3317 40.6079C60.5434 40.9513 60.8264 41.13 61.0989 41.217C63.038 42.5409 65.112 43.3098 67.7442 43.6907C69.6516 44.0129 71.2918 44.281 72.1198 45.5202C73.7785 48.1327 73.8287 51.7305 73.8631 54.604L73.8711 55.2883C73.9266 58.3429 73.8949 61.8607 72.9531 64.9412ZM85.1221 54.8274L85.1168 55.9561C85.1406 60.3887 84.8284 64.913 82.3946 68.0499C81.5772 69.1621 79.9423 69.2444 77.7175 69.2444H77.4794C78.736 66.9752 79.2228 64.3345 79.5243 61.9383C80.0455 57.5763 79.9926 53.3084 79.3603 49.252C79.0878 47.4743 78.6699 45.532 77.7175 43.8083C79.5217 43.9847 81.3735 44.4268 82.7862 45.4967C85.1988 47.2815 85.1512 51.8246 85.1221 54.8274Z" fill="#330A8B"/>
</g>
<defs>
<clipPath id="clip0">
<rect width="96" height="85.3333" fill="white"/>
</clipPath>
</defs>
</svg>
