<?xml version="1.0" encoding="utf-8"?>
<!-- Generator: Adobe Illustrator 21.0.0, SVG Export Plug-In . SVG Version: 6.00 Build 0)  -->
<svg version="1.1" id="Layer_1" xmlns="http://www.w3.org/2000/svg" xmlns:xlink="http://www.w3.org/1999/xlink" x="0px" y="0px"
	 viewBox="0 0 96 74" style="enable-background:new 0 0 96 74;" xml:space="preserve">
<style type="text/css">
	.st0{fill:#330A8B;}
</style>
<path class="st0" d="M62.8,32.3L41.6,20.6c-1.2-0.7-2.7-0.6-3.9,0.1c-1.2,0.7-1.9,2-1.9,3.4v23.2c0,1.4,0.7,2.7,1.9,3.4
	c0.6,0.4,1.3,0.6,2,0.6c0.6,0,1.3-0.2,1.8-0.5l21.2-11.5c1.3-0.7,2-2,2.1-3.4C64.8,34.3,64,33,62.8,32.3z M41.4,44.3V27l15.9,8.7
	L41.4,44.3z"/>
<path class="st0" d="M95.3,17.3L95.3,17.3c-0.1-0.8-0.9-7.8-4.2-11.3c-3.9-4.1-8.2-4.6-10.3-4.9c-0.2,0-0.3,0-0.5-0.1l-0.2,0
	C67.4,0.1,48.2,0,48,0l0,0l0,0c-0.2,0-19.4,0.1-32.2,1.1l-0.2,0c-0.1,0-0.3,0-0.4,0.1c-2.1,0.2-6.4,0.7-10.3,5
	c-3.2,3.5-4.1,10.3-4.2,11l0,0.1c0,0.3-0.7,8-0.7,15.8v7.2c0,7.7,0.7,15.5,0.7,15.8l0,0c0.1,0.8,0.9,7.6,4.2,11.1
	c3.6,4,8.2,4.5,10.7,4.8c0.4,0,0.7,0.1,1,0.1l0.2,0c7.3,0.7,30.3,1,31.3,1.1l0,0l0,0c0.2,0,19.4-0.1,32-1.1l0.2,0
	c0.2,0,0.3,0,0.5-0.1c2.1-0.2,6.4-0.7,10.2-4.9c3.2-3.5,4.1-10.3,4.2-11l0-0.1c0-0.3,0.7-8,0.7-15.8v-7.2
	C96,25.3,95.3,17.6,95.3,17.3z M90.4,40.3c0,7.2-0.6,14.6-0.7,15.2c-0.2,1.9-1.2,6.2-2.8,7.9c-2.4,2.7-4.8,2.9-6.6,3.1
	c-0.2,0-0.4,0-0.6,0.1c-12.3,0.9-30.7,1-31.6,1c-1,0-23.6-0.4-30.7-1c-0.4-0.1-0.8-0.1-1.2-0.2c-2.1-0.2-5-0.6-7.2-3L9,63.4
	c-1.5-1.6-2.5-5.6-2.7-7.8c0-0.5-0.7-8-0.7-15.3v-7.2c0-7.2,0.6-14.5,0.7-15.2c0.3-2.2,1.3-6.2,2.8-7.9c2.5-2.7,5.1-3,6.8-3.2
	c0.2,0,0.3,0,0.5-0.1c12.5-0.9,31-1,31.7-1c0.7,0,19.2,0.1,31.6,1c0.2,0,0.3,0,0.5,0.1C81.8,7,84.5,7.3,87,9.9l0,0
	c1.5,1.6,2.5,5.7,2.7,7.9c0,0.5,0.7,8,0.7,15.3V40.3z"/>
</svg>
